<?xml version="1.0" encoding="UTF-8" standalone="no"?>
<!DOCTYPE svg PUBLIC "-//W3C//DTD SVG 1.1//EN" "http://www.w3.org/Graphics/SVG/1.1/DTD/svg11.dtd">
<svg width="100%" height="100%" viewBox="0 0 512 512" version="1.1" xmlns="http://www.w3.org/2000/svg" xmlns:xlink="http://www.w3.org/1999/xlink" xml:space="preserve" xmlns:serif="http://www.serif.com/" style="fill-rule:evenodd;clip-rule:evenodd;stroke-linejoin:round;stroke-miterlimit:2;">
    <g transform="matrix(22.5,0,0,22.5,-36.5,-14)">
        <path d="M10,9C9.735,9 9.48,8.895 9.293,8.707C9.105,8.52 9,8.265 9,8C9,7.735 9.105,7.48 9.293,7.293C9.48,7.105 9.735,7 10,7L17,7C17.265,7 17.52,7.105 17.707,7.293C17.895,7.48 18,7.735 18,8C18,8.265 17.895,8.52 17.707,8.707C17.52,8.895 17.265,9 17,9L10,9ZM10,12C9.735,12 9.48,11.895 9.293,11.707C9.105,11.52 9,11.265 9,11C9,10.735 9.105,10.48 9.293,10.293C9.48,10.105 9.735,10 10,10L17,10C17.265,10 17.52,10.105 17.707,10.293C17.895,10.48 18,10.735 18,11C18,11.265 17.895,11.52 17.707,11.707C17.52,11.895 17.265,12 17,12L10,12ZM12,20L5,20L12,20ZM12,22L6,22C5.167,22 4.458,21.708 3.875,21.125C3.292,20.542 3,19.833 3,19L3,16L6,16L6,4C6,2.895 6.895,2 8,2L19,2C19.53,2 20.039,2.211 20.414,2.586C20.789,2.961 21,3.47 21,4L21,11.025C20.667,10.992 20.329,11.004 19.988,11.063C19.646,11.121 19.317,11.225 19,11.375L19,4L8,4L8,16L14,16L12,18L5,18L5,19C5,19.283 5.096,19.521 5.288,19.712C5.479,19.904 5.717,20 6,20L12,20L12,22ZM14,22L14,18.925L19.525,13.425C19.675,13.275 19.842,13.167 20.025,13.1C20.208,13.033 20.392,13 20.575,13C20.775,13 20.967,13.038 21.15,13.112C21.333,13.188 21.5,13.3 21.65,13.45L22.575,14.375C22.708,14.525 22.813,14.692 22.888,14.875C22.963,15.058 23,15.242 23,15.425C23,15.608 22.967,15.796 22.9,15.987C22.833,16.179 22.725,16.35 22.575,16.5L17.075,22L14,22ZM21.5,15.425L20.575,14.5L21.5,15.425ZM15.5,20.5L16.45,20.5L19.475,17.45L19.025,16.975L18.55,16.525L15.5,19.55L15.5,20.5ZM19.025,16.975L18.55,16.525L19.475,17.45L19.025,16.975Z" style="fill:rgb(0,189,126);fill-rule:nonzero;"/>
    </g>
</svg>
